# xmcd
#
# Track frame offsets: 
#        150
#        25125
#        46125
#        66526
#        78226
#        112802
#        144378
#        174679
#        199054
#        233855
#        276156
#        307657
#
# Disc length: 4337 seconds
#
# Revision: 3
# Processed by: cddbd v1.5.2PL0 Copyright (c) Steve Scherf et al.
# Submitted via: ExactAudioCopyFreeDBPlugin 1.0
#
DISCID=9b10ef0c
DTITLE=Various Artist - JAZZ BAR 2004
DYEAR=2004
DGENRE=Jazz
TTITLE0=LET'S LIGHT THE STOVE - Let's Light the Stove_NAHORNY TRIO
TTITLE1=THE END OF LOVE AFFAIR - The End of Love Affair_TONI SOLA
TTITLE2=JUST IN TIME - Just In Time_山中千尋
TTITLE3=DEAR BLOSSOM - Dear Blossum_JANET SEIDEL
TTITLE4=LIVERPOOL WALK/INTER LUTTES - Liverpool Walk_ERIC TERUEL
TTITLE5=SOLEA BLUES - Solea Blues_CHANO DOMINGUEZ
TTITLE6=ISHMAEL - Ishmael_TIM RICHARDS
TTITLE7=SKYLARK - Skylark_TONY LAKATOS
TTITLE8=DO YOU KNOW WHAT IT MEANS TO MISS NEW ORLEANS?_Landy Porter
TTITLE9=IT'S A LONESOME OLD TOWN - It's a Lonesome Old Town_HAROLD MAB
TTITLE9=ERN
TTITLE10=THE BEST THING FOR YOU - The Best Thing For You_アーク・佐野
TTITLE11=MERIDIAN_MARY LOUISE KNUTSON
EXTD=YEAR: 2004
EXTT0=
EXTT1=
EXTT2=
EXTT3=
EXTT4=
EXTT5=
EXTT6=
EXTT7=
EXTT8=
EXTT9=
EXTT10=
EXTT11=
PLAYORDER=
